<svg xmlns="http://www.w3.org/2000/svg" viewBox="0 0 1211.54 1065.99"><defs><style>.cls-1{fill:none;stroke:#000fcc;stroke-linecap:round;stroke-linejoin:round;stroke-width:5px;}.cls-2,.cls-3{font-size:42px;font-family:Didot-Italic, Didot;font-style:italic;}.cls-2,.cls-4{letter-spacing:0.02em;}.cls-3{letter-spacing:-0.05em;}</style></defs><title>m-t-p</title><g id="Layer_2" data-name="Layer 2"><g id="Map"><path id="Marseille_to_Paris" data-name="Marseille to Paris" class="cls-1" d="M540.21,1008.51c-1.85-5.48-5.25-8.25,1.39-12.92,3.3-2.32,8.37-1.93,12-3.88,2.67-1.43,4.19-3.6,6.86-4.58,3.75-1.38,7,.26,8.38-1a2.71,2.71,0,0,1,2-.74c7.55.55,41.25.78,44.18,1.19,9.26,1.29,16.8,5.73,25.66,8,9.48,2.41,19.43,1.33,29.07,2.08,14.44,1.13,30.09,5,44.25,3.4,6.13-.69,13.86-1.21,19.3-4.05a8.33,8.33,0,0,1,.78-3.19,14.47,14.47,0,0,1,4.51-1.6,34.87,34.87,0,0,1,8.58-2.09c11-1.64,26.52,3.18,34-3.63,2.3-2.09,5.32-8.79,8.08-10.33,4.74-2.64,8.27.2,13.42.91,11.8,1.63,16.81-5.82,26.69-8.77,6.13-1.83,12.55-2.64,17.51-6.4,2.41-1.83,2.88-4.18,5.91-5.8,1.76-.94,8.49-1,9.35-2.64.39-.74-2.19-4.1-1.67-5.71.34-1.05,3.56-1.87,4-2.22,4-3,5.78-2.56,10.45-2.93,6.9-.55,13.87-2.32,20.53-3.55,3.91-.72,7.19-1.2,10.52-3.44,1.86-1.25,2.37-3.7,5.15-4.56,3.73-1.16,9.66,1.14,13.75.72,1.22-.13,2.82-.85,4.21-1.05,7.47-1.09,15.25,1.56,22-1,4.55-1.7,6.1-4.74,10.16-5.69,2.9-.68,5.68.27,8.82-1,1.93-.75,5.09-3.9,6.33-4.24,2.77-.75,5.52,1.57,8.54,2.14,7.18,1.36,14.38-1.87,20.41-5.59.92-.57,1.7-3,2.27-3.26,1.84-.85,2.69,1.05,5.11.05,3-1.25,11-5.4,12.89-8.37,3.77-5.79-2.46-11.34,2.31-16.91,4.18-4.89,11.44-6,14.78-11.26.81-1.27.87-3.22,2.44-5.08,2.33-2.75,6.36-3.58,8.91-5.94,1.78-1.64,2.29-4,3.89-5.42,4.56-4,7.54-1.28,12-3.72s6.67-8.83,11.22-12.45c6-4.78,13.77-8,20.89-10.68,6.81-2.57,13-5.63,20-8.38,1.31-.51,9.39-2,10-3,2.71-4.19-4.14-2.59-3.1-4.87s5.64,2.55,3.62-4.43c-1-3.52-4.78-5.42-7-7.77.79.82-3.53-5.86-2.8-4.5-.87-1.6-2.72-2.31-3.63-4.47-1.17-2.75-.23-9.61-.31-12.76-.11-4.79,1.52-9.32.54-13.92-1-4.93-5.23-5.11-.23-8.82,2.72-2,9-1.82,12.29-3.27,3.78-1.65,11.83-4.32,15.08-6.77,2.79-2.1,2.56-5.17,3.47-9.1,1.65-7.13,3.69-9.92,8.58-15.05a72.9,72.9,0,0,0,15.09-23.13A208.75,208.75,0,0,1,1187,672.73a137.27,137.27,0,0,1,11-16.39c2.42-3.1,10.57-12.05,11-16-3,.39-5.37-4.76-6.64-7.07-2.82-5.12-2.53-5.77-9.7-5.34-9.94.6-20.13,1.51-30,3-10.34,1.54-19.33,5.3-29.95,5.29-20.73,0-40.48-.87-61.24,1a191.77,191.77,0,0,0-27.15,4.12c-8.4,2-12.26,8.89-19.49,11.49-6.75,2.43-14-2.89-19.86-5.37-8.22-3.49-17.65-.31-25.43-3.4-4.58-1.83-3.33-2.82-4.4-7.93-1.47-7-1.63-15-7.93-20.33-2.67-2.24-5.55-2.21-8.27-3.81-2.49-1.47-4.41-4.26-6.53-6.32-2.56-2.49-6.25-4.52-7.57-8.07-1-2.58.36-5.16-1.27-7.39-4.06-5.51-14.25-2.55-19.72-2.24-10.31.58-20.72.28-31,1-10.13.73-18.34,5.13-28,6.64-9,1.41-14.89-3.22-22.68-6.24-3.9-1.51-8-2.44-11.91-3.93s-7.76-3.63-10.19-7.14a10.88,10.88,0,0,1-.63-1,2.8,2.8,0,0,1-.43-1.45L816.81,574a11.73,11.73,0,0,1-2.53-2.15,56.32,56.32,0,0,1-4-5.48l-7.4-7.74a5,5,0,0,0-1.84-.19,7.92,7.92,0,0,0-1.77.35,27.19,27.19,0,0,0-3.23,1.31c-2.05.92-4.29,1.77-6.52.95-3.18-1.17-2.94-5.42-6.85-5.93-3.4-.44-4.32,3.33-9.25,3.19-5.36-.15-9.72-4.21-11.4-9-3.46-9.87-2.49-15.39-14.5-18.49-10.95-2.82-24,3.78-33-4-3.6-3.11-5.8-7.65-9.81-10.22-1.55-1-10.78-5.7-12.84-5.68-4.27,0-9.31,4-13.19,5.47-6.11,2.36-10.41,3-16.66,3.4-9.7.69-18.55,5.74-27.26,9.1-3.8,1.47-.47,4.09-7.11,1.87-2.08-.69-8.69-5.16-10-6.87-2.11-2.73-2.13-6.81-5-9.22s-14.72-2.82-18.2-2.12c-3.68.74-6.45,3.75-9.84,5.24-6.61,2.9-9.45.48-15.8,1.06s-13.13,5.39-19.87,7c-4.25,1-16.49,6.77-20.51,3.58-6.16-4.89-.12-13.44,0-18.73.37-13.56-14.72-13.86-24.19-14.15-12.08-.38-25.84-.2-37.58-3.43-3.76-1-21.21-10.62-21.41-13.75-.08-1.35,6.14-10.21,6.89-12.32A68.14,68.14,0,0,1,458,454.94c4.63-8-.66-13.52-4.91-20-4.74-7.19-7.63-19.28-9-27.84-.82-5.12,1-10.23.71-15.44-.45-8.46-2-11.78,2.38-19.58s8.21-11.14-1.86-14.62c-3-1-6.92-.33-9.79-1.93-1.4-.78-1.06-2.9-2.31-3.76-2-1.36-5-2.11-6.68-3.46-3.7-3-2.49-5.76-4.44-9.4-3.6-6.74-8.36-6-14.5-9.09-3.63-1.83-5.58-5.32-9.06-7.1-2.51-1.28-5.27-.59-7.5-2.49-2.82-2.39-2.34-6.25-4.5-9.11-3.39-4.48-9-6.14-13.85-8.43-6.36-3-11.48-7.23-17.32-11.09-10.51-6.95-21.39-8.68-33.4-11.48-9.25-2.16-18.65-.17-25.64-6.5-2.92-2.65-7.64-5.74-10.13-8.86-3.25-4.06-1.29-8.51-4.06-12.43-4.89-6.91-17.06-8.34-24.09-11.77-2-1-3.93-1.62-5.44-3.35-1-1.18,0-4.06-.67-4.64-3.87-3.35-9.76-3.18-14.08-6.41-3.46-2.59-5.18-7.26-9-9.23-3.08-1.58-9-1.53-12.54-2.08-11.64-1.8-22.76-6.07-34.38-8.24-15.37-2.87-24.36-12.67-36.4-22.23-10.28-8.16-22.05-12.35-33.91-17.5a166.09,166.09,0,0,1-37.75-22.64C64.31,136.8,53,135,46.34,124.07c-2.25-3.71-5.19-9.39-7-13.38-2.82-6.15-1.67-12.48-5.86-18.12-3.64-4.89-9.81-10-14.77-13.71-4.17-3.11-12.05-5.2-14.8-9.63C0,63,5.14,62.22,7.66,56.76c2.22-4.8.65-6,4.32-9.82s9.23-4.8-2.22-10.84"/><text class="cls-2" transform="translate(548.08 1053.81)">Marseille</text><text class="cls-3" transform="translate(33.47 36.1)">P<tspan class="cls-4" x="24.15" y="0">aris</tspan></text></g></g></svg>