<svg xmlns="http://www.w3.org/2000/svg" viewBox="0 0 1211.54 1065.99" id="m-t-p">

    <path id="m-t-p-path" data-name="Marseille to Paris" d="M540.2,1008.5c-1.8-5.5-5.2-8.2,1.4-12.9c3.3-2.3,8.4-1.9,12-3.9c2.7-1.4,4.2-3.6,6.9-4.6c3.8-1.4,7,0.3,8.4-1c0.5-0.5,1.3-0.8,2-0.7c7.5,0.5,41.2,0.8,44.2,1.2c9.3,1.3,16.8,5.7,25.7,8c9.5,2.4,19.4,1.3,29.1,2.1c14.4,1.1,30.1,5,44.2,3.4c6.1-0.7,13.9-1.2,19.3-4c0-1.1,0.3-2.2,0.8-3.2c1.4-0.8,2.9-1.3,4.5-1.6c2.8-1.1,5.6-1.8,8.6-2.1c11-1.6,26.5,3.2,34-3.6c2.3-2.1,5.3-8.8,8.1-10.3c4.7-2.6,8.3,0.2,13.4,0.9c11.8,1.6,16.8-5.8,26.7-8.8c6.1-1.8,12.5-2.6,17.5-6.4c2.4-1.8,2.9-4.2,5.9-5.8c1.8-0.9,8.5-1,9.3-2.6c0.4-0.7-2.2-4.1-1.7-5.7c0.3-1,3.6-1.9,4-2.2c4-3,5.8-2.6,10.5-2.9c6.9-0.5,13.9-2.3,20.5-3.5c3.9-0.7,7.2-1.2,10.5-3.4c1.9-1.2,2.4-3.7,5.2-4.6c3.7-1.2,9.7,1.1,13.8,0.7c1.2-0.1,2.8-0.8,4.2-1c7.5-1.1,15.2,1.6,22-1c4.5-1.7,6.1-4.7,10.2-5.7c2.9-0.7,5.7,0.3,8.8-1c1.9-0.8,5.1-3.9,6.3-4.2c2.8-0.8,5.5,1.6,8.5,2.1c7.2,1.4,14.4-1.9,20.4-5.6c0.9-0.6,1.7-3,2.3-3.3c1.8-0.8,2.7,1,5.1,0c3-1.2,11-5.4,12.9-8.4c3.8-5.8-2.5-11.3,2.3-16.9c4.2-4.9,11.4-6,14.8-11.3c0.8-1.3,0.9-3.2,2.4-5.1c2.3-2.8,6.4-3.6,8.9-5.9c1.8-1.6,2.3-4,3.9-5.4c4.6-4,7.5-1.3,12-3.7s6.7-8.8,11.2-12.5c6-4.8,13.8-8,20.9-10.7c6.8-2.6,13-5.6,20-8.4c1.3-0.5,9.4-2,10-3c2.7-4.2-4.1-2.6-3.1-4.9s5.6,2.5,3.6-4.4c-1-3.5-4.8-5.4-7-7.8c0.8,0.8-3.5-5.9-2.8-4.5c-0.9-1.6-2.7-2.3-3.6-4.5c-1.2-2.8-0.2-9.6-0.3-12.8c-0.1-4.8,1.5-9.3,0.5-13.9c-1-4.9-5.2-5.1-0.2-8.8c2.7-2,9-1.8,12.3-3.3c3.8-1.7,11.8-4.3,15.1-6.8c2.8-2.1,2.6-5.2,3.5-9.1c1.7-7.1,3.7-9.9,8.6-15c6.5-6.7,11.6-14.5,15.1-23.1c3.7-9.8,8.2-19.2,13.4-28.3c3.3-5.7,6.9-11.2,11-16.4c2.4-3.1,10.6-12,11-16c-3,0.4-5.4-4.8-6.6-7.1c-2.8-5.1-2.5-5.8-9.7-5.3c-9.9,0.6-20.1,1.5-30,3c-10.3,1.5-19.3,5.3-29.9,5.3c-20.7,0-40.5-0.9-61.2,1c-9.1,0.7-18.2,2.1-27.2,4.1c-8.4,2-12.3,8.9-19.5,11.5c-6.8,2.4-14-2.9-19.9-5.4c-8.2-3.5-17.7-0.3-25.4-3.4c-4.6-1.8-3.3-2.8-4.4-7.9c-1.5-7-1.6-15-7.9-20.3c-2.7-2.2-5.5-2.2-8.3-3.8c-2.5-1.5-4.4-4.3-6.5-6.3c-2.6-2.5-6.2-4.5-7.6-8.1c-1-2.6,0.4-5.2-1.3-7.4c-4.1-5.5-14.2-2.5-19.7-2.2c-10.3,0.6-20.7,0.3-31,1c-10.1,0.7-18.3,5.1-28,6.6c-9,1.4-14.9-3.2-22.7-6.2c-3.9-1.5-8-2.4-11.9-3.9s-7.8-3.6-10.2-7.1c-0.2-0.3-0.4-0.7-0.6-1c-0.3-0.4-0.4-0.9-0.4-1.5l-2.2-1.8c-0.9-0.6-1.8-1.3-2.5-2.2c-1.4-1.7-2.8-3.6-4-5.5l-7.4-7.7c-0.6-0.2-1.2-0.2-1.8-0.2c-0.6,0-1.2,0.2-1.8,0.3c-1.1,0.4-2.2,0.8-3.2,1.3c-2,0.9-4.3,1.8-6.5,1c-3.2-1.2-2.9-5.4-6.8-5.9c-3.4-0.4-4.3,3.3-9.2,3.2c-5.4-0.2-9.7-4.2-11.4-9c-3.5-9.9-2.5-15.4-14.5-18.5c-11-2.8-24,3.8-33-4c-3.6-3.1-5.8-7.7-9.8-10.2c-1.5-1-10.8-5.7-12.8-5.7c-4.3,0-9.3,4-13.2,5.5c-6.1,2.4-10.4,3-16.7,3.4c-9.7,0.7-18.5,5.7-27.3,9.1c-3.8,1.5-0.5,4.1-7.1,1.9c-2.1-0.7-8.7-5.2-10-6.9c-2.1-2.7-2.1-6.8-5-9.2s-14.7-2.8-18.2-2.1c-3.7,0.7-6.5,3.8-9.8,5.2c-6.6,2.9-9.5,0.5-15.8,1.1s-13.1,5.4-19.9,7c-4.2,1-16.5,6.8-20.5,3.6c-6.2-4.9-0.1-13.4,0-18.7c0.4-13.6-14.7-13.9-24.2-14.1c-12.1-0.4-25.8-0.2-37.6-3.4c-3.8-1-21.2-10.6-21.4-13.8c-0.1-1.4,6.1-10.2,6.9-12.3c1.5-4.2,3.5-8.3,5.9-12.1c4.6-8-0.7-13.5-4.9-20c-4.7-7.2-7.6-19.3-9-27.8c-0.8-5.1,1-10.2,0.7-15.4c-0.5-8.5-2-11.8,2.4-19.6s8.2-11.1-1.9-14.6c-3-1-6.9-0.3-9.8-1.9c-1.4-0.8-1.1-2.9-2.3-3.8c-2-1.4-5-2.1-6.7-3.5c-3.7-3-2.5-5.8-4.4-9.4c-3.6-6.7-8.4-6-14.5-9.1c-3.6-1.8-5.6-5.3-9.1-7.1c-2.5-1.3-5.3-0.6-7.5-2.5c-2.8-2.4-2.3-6.2-4.5-9.1c-3.4-4.5-9-6.1-13.9-8.4c-6.4-3-11.5-7.2-17.3-11.1c-10.5-7-21.4-8.7-33.4-11.5c-9.2-2.2-18.6-0.2-25.6-6.5c-2.9-2.6-7.6-5.7-10.1-8.9c-3.2-4.1-1.3-8.5-4.1-12.4c-4.9-6.9-17.1-8.3-24.1-11.8c-2-1-3.9-1.6-5.4-3.4c-1-1.2,0-4.1-0.7-4.6c-3.9-3.4-9.8-3.2-14.1-6.4c-3.5-2.6-5.2-7.3-9-9.2c-3.1-1.6-9-1.5-12.5-2.1c-11.6-1.8-22.8-6.1-34.4-8.2c-15.4-2.9-24.4-12.7-36.4-22.2c-10.3-8.2-22.1-12.4-33.9-17.5c-13.5-5.8-26.2-13.5-37.8-22.6c-9.6-7.4-20.9-9.2-27.5-20.2c-2.2-3.7-5.2-9.4-7-13.4c-2.8-6.2-1.7-12.5-5.9-18.1c-3.6-4.9-9.8-10-14.8-13.7c-4.2-3.1-12.1-5.2-14.8-9.6C0,63,5.1,62.2,7.7,56.8c2.2-4.8,0.6-6,4.3-9.8s9.2-4.8-2.2-10.8"/>

    <text fill="red" class="label" transform="translate(548.08 1053.81)">Marseille</text>
    <text fill="red" class="label" transform="translate(33.47 36.1)">Paris</text>
    <text fill="red" class="label" transform="matrix(1 0 0 1 1065.9746 606.2562)">Milano</text>

    <circle fill="red" cx="5.1" cy="31.7" r="6.6"/>
    <circle fill="red" cx="542.2" cy="1013" r="6.6"/>
    <circle fill="red" cx="1197.2" cy="627.5" r="6.6"/>
  </svg>
