<?xml version="1.0" encoding="utf-8"?>
<!-- Generator: Adobe Illustrator 20.1.0, SVG Export Plug-In . SVG Version: 6.00 Build 0)  -->
<svg version="1.1" id="VB-M-1" xmlns:svg="http://www.w3.org/2000/svg"
	 xmlns="http://www.w3.org/2000/svg" xmlns:xlink="http://www.w3.org/1999/xlink" x="0px" y="0px" viewBox="0 0 1938.5 539"
	 style="enable-background:new 0 0 1938.5 539;" xml:space="preserve">

<g transform="translate(0,0)">
	<g>
		<text transform="matrix(1 0 0 1 119.6562 460.8998)" class="label">Virginia Beach, VA, United States</text>
	</g>
</g>
<g transform="translate(0,0)">
	<g>
		<text transform="matrix(1 0 0 1 1514.9258 164.7983)" class="label">Frankfurt, Germany</text>
	</g>
</g>
<g transform="translate(0,0)">
	<g>
		<text transform="matrix(1 0 0 1 1181.6906 204.8072)" class="label">Paris, France</text>
	</g>
</g>
<g transform="translate(0,0)">
	<g>
		<text transform="matrix(1 0 0 1 1458.2217 322.0825)" class="label">Marseille, France</text>
	</g>
</g>
<g transform="translate(0,0)">
		<text transform="matrix(1 0 0 1 108.6494 417.5307)" class="label">Washington, DC, United States</text>
</g>

<path id="VB-M-1-path" d="M104.3,452.6c-0.7-0.6-1.6-1.1-2.4-1.9c-0.7-0.7-1.1-1.6-1.9-2.4c-1-1.1-1.7-2.5-2.7-3.7c-0.8-1.1-3.9-2-4.3-2.6c-0.8-1.5-4,0.6-4.9-1.9c-0.2-0.6-1.5-1.2-1.7-1.7c-0.1-0.3-0.4-1.1-0.5-1.7c-0.2-1.1,0.1-2-0.1-3c-0.1-1-0.6-2-0.6-3c-0.1-1.5-0.3-2.7-0.1-4.2c0.1-1.2-0.2-2.1,0-3.2c0.2-1.1,1.3-2.3,1.7-3.4c0.4-1.2,1.2-2.4,1.8-3.5c0.5-1,1.1-1.6,1.7-2.6c0.5-0.8,1-1.3,1.5-2l0.8-2.4c0,0,442.9-659.1,1404.7-249.1l-3.4,4.2l-4.1,3l-1.6,1.7l-1.8,0.5l-0.9,1.6l-1.7,0.6c-0.9,0.5-2.3,0.4-3.2,0.9c-1.4,0.7-3.9,1.6-5.4,2.2c-0.9,0.4-1.8,1.1-2.8,1.4c-0.5,0.2-0.6,0.9-1.3,1.1c-0.5,0.2-1.3,0.5-1.7,0.6c-0.7,0.2-1.3,0.7-2,1c-0.9,0.3-2.1-0.2-3,0.1c-1.1,0.4-2.3-0.4-3.4,0l-3.5-1.4c-0.6,0.1-1.1,0.1-1.6,0.2c-0.5,0.1-1.4-0.2-1.8-0.1c-1.1,0.1-2.3,0.3-3.4,0.5c-1,0.1-2,1.2-3.1,1.3c-0.6,0.1-1.4,0-2.1,0c-0.8,0.1-1.3,0.2-2.2,0.3c-0.9,0.1-1.9,0.1-2.8,0.3c-0.9,0.1-1.8-0.1-2.7,0c-1.4,0.2-2.9,0.5-4.3,0.7c-1.5,0.2-3,0.5-4.5,0.7c-1,0.1-2.3-0.9-2.9-0.8c-0.1,0-1.1-2.7-2-2.6c-0.6,0.1-2.8-1.2-2.9-1.2c-0.8,0.1-2,0.5-2.9,0.6c-0.9,0.1-1.8,1.6-3.1,1.8c-1.2,0.2-2.2,0.9-3.3,1.2c-1.1,0.2-2,0.6-3.1,0.9c-0.9,0.2-1.6,1.4-2.4,1.7c-0.7,0.2-1.8,1.6-2.8,1.9c-1.5,0.5-4.3,0.4-5.7,1c-0.6,0.3-1.4,0.2-2,0.4l-1.1,0c-0.4-0.1-0.3,1.3-0.3,1.4c4.2,10.8,14.7,19.8,25,24.3c1.1,1.3,1.7,2.7,2.8,4l3.2,0.7c2.8,2.2,5.3,4.4,7.8,6.9c0,1,1.9,5.6,2.2,7.6c1.1,6.5,0.3,14.1-1.7,20.7c0.3,1.3,1.4,2.7,1.6,3.7c0.7,2.5,0.5,6.7-0.2,9.8c0,2.2,1.5,3.5,1.1,5.8c0,0.7,0.1,1.5,0.2,2.2c0,5.2-2.4,11.1-2.9,16.4c0.1,0.5,1.1,1.8,1.4,2.4c1,1,1.5,1.5,1.6,2.5c0.3,3,1.1,2,2.1,4.2c2,4.2,3.7,8.1,5.6,12c0,0,0,0,0,0c0,0,0,0,0,0"/>

<circle fill="red" class="circle" cx="91.7" cy="410.9" r="6.6"/>
<circle fill="red" class="circle" cx="105.6" cy="453.3" r="6.6"/>
<circle fill="red" class="circle" cx="1394.4" cy="188" r="6.6"/>
<circle fill="red" class="circle" cx="1445.8" cy="313.7" r="6.6"/>
<circle fill="red" class="circle" cx="1498.3" cy="161.2" r="6.6"/>
</svg>
